<svg width="274" height="161" viewBox="0 0 274 161" fill="none" xmlns="http://www.w3.org/2000/svg">
<path d="M17.1594 92.5153C84.0406 157.284 190.467 157.284 257.437 92.4357C261.671 88.8552 267.931 89.421 271.511 93.5762C274.765 97.4043 274.685 103.018 271.264 106.678C196.656 179.094 77.9404 179.094 3.32338 106.758C-0.584288 102.93 -0.663855 96.6705 3.16424 92.7628C6.9835 88.8551 13.2517 88.696 17.1594 92.5153Z" fill="#1A1A1A"/>
<path d="M67.766 91.1362C51.3308 91.0566 38.0695 77.7953 38.0695 61.4397C38.0695 49.9642 44.6559 39.5497 55.0793 34.5899L37.1677 16.9259C33.26 13.0182 33.26 6.75885 37.1677 2.93075C41.0754 -0.976917 47.3347 -0.976917 51.1628 2.93075L88.4271 40.195L88.8338 40.6017L89.8947 41.6626C90.2218 42.0693 90.4605 42.476 90.708 42.8827C101.043 55.4986 99.1688 74.1263 86.5617 84.4613C81.266 88.8552 74.6 91.1362 67.766 91.1362Z" fill="#1A1A1A"/>
<path d="M206.965 91.1362C223.4 91.0566 236.662 77.7953 236.662 61.4397C236.662 49.9642 230.075 39.5497 219.652 34.5899L237.563 16.9259C241.471 13.0182 241.471 6.75885 237.563 2.93075C233.656 -0.976917 227.396 -0.976917 223.568 2.93075L186.304 40.195L185.897 40.6017L184.836 41.6626C184.509 42.0693 184.271 42.476 184.023 42.8827C173.688 55.4986 175.562 74.1263 188.169 84.4613C193.465 88.8552 200.131 91.1362 206.965 91.1362Z" fill="#1A1A1A"/>
</svg>
